PathFileType	4	(X/Y/Z)	./resultDataOpenSim/trcMotMarkerGrf/sub09/qtm-15-06.trc
DataRate	CameraRate	NumFrames	NumMarkers	Units	OrigDataRate	OrigDataStartFrame	OrigNumFrames
250.000000	250.000000	14	24	m	250.000000	63	502
Frame#	Time	L.Toe.Tip			R.Toe.Tip			L.Ankle.Lat			R.Ankle.Lat			L.Ankle.Med			R.Ankle.Med			L.Heel			R.Heel			L.Knee.Lat			R.Knee.Lat			L.Knee.Med			R.Knee.Med			L.Thigh.Upper			R.Thigh.Upper			L.ASIS			R.ASIS			V.Sacral			L.Acromium			R.Acromium			C7			L.Elbow			R.Elbow			L.Wrist.Lat			R.Wrist.Lat
		X1	Y1	Z1	X2	Y2	Z2	X3	Y3	Z3	X4	Y4	Z4	X5	Y5	Z5	X6	Y6	Z6	X7	Y7	Z7	X8	Y8	Z8	X9	Y9	Z9	X10	Y10	Z10	X11	Y11	Z11	X12	Y12	Z12	X13	Y13	Z13	X14	Y14	Z14	X15	Y15	Z15	X16	Y16	Z16	X17	Y17	Z17	X18	Y18	Z18	X19	Y19	Z19	X20	Y20	Z20	X21	Y21	Z21	X22	Y22	Z22	X23	Y23	Z23	X24	Y24	Z24

63	0.248	-1.4291493	0.087956471	-0.046927082	-0.70084121	0.041240401	0.10374933	-1.4382772	0.24453048	-0.087213019	-0.84843052	0.05316302	0.13420498	-1.4157058	0.22761953	0.0075615342	-0.83793803	0.093706622	0.045024796	-1.4952805	0.2944695	-0.038010093	-0.91416354	0.030396801	0.081908314	-1.0647916	0.42156791	-0.11294648	-0.80597368	0.5066955	0.1963595	-1.0524661	0.4093228	0.01247389	-0.81541755	0.49366159	0.069885744	-1.0326298	0.82851834	-0.12968542	-1.005455	0.8637215	0.24187082	-0.94035861	0.91624789	-0.078906585	-0.92810216	0.94684667	0.15971635	-1.104391	0.98697211	0.042915577	-0.92665256	1.3849749	-0.10969226	-0.95893675	1.3869985	0.21844475	-1.0129531	1.4390297	0.053726461	-1.0333727	1.0241143	-0.1884236	-1.1042143	1.0498988	0.29016884	-0.80329562	0.88072483	-0.15931726	-0.96355662	0.81375108	0.30950487
64	0.252	-1.415444	0.090196797	-0.047519117	-0.70090027	0.041223859	0.10364483	-1.4255642	0.24683652	-0.086829922	-0.84835093	0.053127835	0.13423548	-1.404129	0.22969395	0.0082897062	-0.83790501	0.093731024	0.045095881	-1.4829559	0.2962102	-0.03754442	-0.91425666	0.03040852	0.081948923	-1.0518466	0.42198946	-0.11183351	-0.80273017	0.50647771	0.19638966	-1.040371	0.40977904	0.013779513	-0.81255722	0.49341059	0.069982365	-1.0260922	0.82918763	-0.12925096	-1.0004171	0.86513484	0.24207856	-0.93453515	0.91744027	-0.078648095	-0.9216634	0.94826511	0.15986741	-1.0982558	0.98822967	0.043241175	-0.92081274	1.3862214	-0.10953322	-0.95234622	1.3881267	0.21870955	-1.0067489	1.4403085	0.05422681	-1.0278848	1.025501	-0.18716731	-1.0972667	1.0506443	0.2911618	-0.80000408	0.87923429	-0.15950401	-0.95400706	0.81568959	0.30939899
65	0.256	-1.4014467	0.092118778	-0.047894297	-0.70098198	0.041223422	0.1035817	-1.4125547	0.24876551	-0.086468998	-0.84830155	0.053107867	0.13428372	-1.3916372	0.23160307	0.0087939002	-0.8379017	0.093763415	0.045174488	-1.4706652	0.29752776	-0.037200426	-0.91435456	0.030431417	0.081994794	-1.0390094	0.42261593	-0.11061449	-0.79975016	0.50625675	0.19644593	-1.029185	0.41039537	0.015142592	-0.80988832	0.49319271	0.07012783	-1.0196037	0.82997272	-0.12884021	-0.99448287	0.86676881	0.24237881	-0.92878392	0.9186984	-0.07841105	-0.91502797	0.94976868	0.15998232	-1.0920305	0.9895373	0.043594258	-0.91487234	1.387542	-0.1093508	-0.9457907	1.3893162	0.21896029	-1.0005536	1.4416437	0.054725174	-1.0224512	1.0269676	-0.18601311	-1.0904031	1.0514765	0.29209136	-0.79661651	0.87781677	-0.15967225	-0.94453719	0.81774134	0.30925479
66	0.26	-1.3873308	0.093680981	-0.048032718	-0.70107176	0.041228534	0.1035425	-1.3992939	0.25030557	-0.086124757	-0.84829457	0.053108184	0.13434935	-1.3780688	0.233362	0.0089587336	-0.83791811	0.093810501	0.045256139	-1.4583557	0.29846326	-0.036983353	-0.91445101	0.030471198	0.082044282	-1.0261171	0.42338881	-0.10947746	-0.79708016	0.50606022	0.19655186	-1.0182492	0.41119733	0.016541556	-0.80734333	0.49301619	0.070286331	-1.0131515	0.83088187	-0.12845862	-0.98786585	0.86857654	0.24274932	-0.92311994	0.92003396	-0.078204957	-0.90830201	0.95132541	0.16007496	-1.0858698	0.99093384	0.043952834	-0.90906953	1.3889449	-0.10921186	-0.93926307	1.3905706	0.21919298	-0.99438908	1.4430395	0.055223149	-1.0171644	1.0285015	-0.18504048	-1.0836147	1.0524077	0.29296146	-0.79325316	0.87648627	-0.1598407	-0.93513568	0.8199266	0.30908257
67	0.264	-1.373144	0.094889906	-0.047959324	-0.70115619	0.04123011	0.10350994	-1.3858351	0.25147029	-0.085791269	-0.84836632	0.053135814	0.13443986	-1.3638992	0.23488359	0.0089423898	-0.83794152	0.09387016	0.045336086	-1.4459457	0.29905711	-0.036898491	-0.91453875	0.030527856	0.082095057	-1.0130895	0.42428971	-0.1084702	-0.79466564	0.50589963	0.19665693	-1.0062565	0.41218132	0.017947555	-0.80485032	0.49288327	0.070405975	-1.0067548	0.83191897	-0.12811849	-0.98103758	0.87046734	0.24313826	-0.91755002	0.92145759	-0.078026163	-0.9017109	0.95290135	0.16014994	-1.079848	0.99243343	0.044294111	-0.9035336	1.3904281	-0.10914635	-0.93277605	1.3918965	0.21941462	-0.98827306	1.4444954	0.05571246	-1.0120084	1.0301078	-0.18415492	-1.0768884	1.0534307	0.29379045	-0.79007648	0.87524544	-0.16002908	-0.9257645	0.822268	0.308893
68	0.268	-1.3587524	0.095810817	-0.047774305	-0.70122452	0.041225168	0.10347984	-1.3722425	0.25228915	-0.085461378	-0.8485561	0.053196173	0.13456965	-1.3497774	0.23604299	0.0089987412	-0.83795422	0.093931992	0.045412906	-1.4333363	0.29932413	-0.036932067	-0.91460976	0.030596434	0.082139216	-0.99999583	0.42536023	-0.10745423	-0.7922822	0.50576384	0.19665776	-0.99275928	0.41331629	0.019356089	-0.8023823	0.49278932	0.070467907	-1.0004675	0.83307737	-0.12783656	-0.97433974	0.87236518	0.24351021	-0.91205383	0.92297379	-0.07785399	-0.89551105	0.95447161	0.16020332	-1.0739321	0.99401389	0.04461529	-0.89818418	1.391981	-0.1091227	-0.92633781	1.3932965	0.21963552	-0.98220616	1.4460016	0.056171334	-1.0069135	1.0317945	-0.18321182	-1.070213	1.0545302	0.29458981	-0.78715559	0.87408657	-0.160242	-0.91640067	0.82477493	0.30869382
69	0.272	-1.3439733	0.096518417	-0.047579202	-0.7012705	0.041216788	0.1034589	-1.3585723	0.25279441	-0.085132273	-0.84884564	0.053282378	0.13473457	-1.3359621	0.23680112	0.009222872	-0.83794238	0.093986229	0.045488227	-1.4204685	0.29926861	-0.037032951	-0.91465952	0.030672125	0.082162908	-0.98697077	0.426645	-0.10630903	-0.78964902	0.50564801	0.19650507	-0.97840646	0.41456236	0.020770516	-0.79998322	0.49272235	0.070518831	-0.994328	0.83434197	-0.12761303	-0.96792183	0.87422826	0.24384127	-0.9065794	0.92457896	-0.077668494	-0.88979543	0.95602246	0.1602327	-1.0680572	0.9956222	0.044939061	-0.89287203	1.3935906	-0.10909469	-0.91993981	1.3947676	0.21985843	-0.97617641	1.4475495	0.056579705	-1.0018227	1.0335726	-0.18209423	-1.0635838	1.0557	0.2953599	-0.78442988	0.8730042	-0.1604656	-0.90710884	0.82742285	0.30848797
70	0.276	-1.3287485	0.097045401	-0.047391785	-0.70129426	0.041208866	0.10345516	-1.3448194	0.25300998	-0.084819535	-0.84912422	0.053365522	0.13489277	-1.3223619	0.23721455	0.0095709236	-0.83790529	0.094031936	0.04556549	-1.4073919	0.29892313	-0.03713792	-0.91468833	0.030754503	0.082155264	-0.97410313	0.42813183	-0.10505323	-0.78672438	0.50556818	0.19628625	-0.96408916	0.41591204	0.022179489	-0.79773273	0.49266181	0.070638096	-0.9882662	0.83570562	-0.12739283	-0.96179822	0.87604335	0.24411876	-0.9010567	0.92626442	-0.07746289	-0.88435693	0.95755267	0.16025278	-1.0621942	0.99721917	0.0452819	-0.88752552	1.3952479	-0.10904395	-0.91357105	1.3963	0.22007751	-0.97017199	1.449136	0.056932635	-0.99669715	1.035467	-0.18068038	-1.0570046	1.0569417	0.29610122	-0.78180174	0.87200477	-0.1606852	-0.8980458	0.83015044	0.30827136
71	0.28	-1.3131325	0.097390164	-0.047170538	-0.70130334	0.041199818	0.10347204	-1.3308855	0.2529514	-0.084568866	-0.84926964	0.05341165	0.13499833	-1.3087718	0.23737168	0.009974125	-0.83785412	0.094077412	0.045650333	-1.3942068	0.29832325	-0.037217448	-0.91469952	0.030848347	0.082120542	-0.96138728	0.42976904	-0.10376144	-0.78381222	0.50550718	0.1961709	-0.95027404	0.41740248	0.023565113	-0.7956492	0.49258446	0.070849672	-0.98209093	0.83718157	-0.12707647	-0.95589323	0.87781285	0.24435302	-0.89542967	0.92802625	-0.077238245	-0.87887373	0.95906882	0.16028367	-1.0563477	0.99882679	0.045627372	-0.88215344	1.3969446	-0.10897742	-0.90722659	1.3978783	0.22028535	-0.96418631	1.450754	0.057240265	-0.99152792	1.0374869	-0.17892854	-1.0504858	1.0582542	0.29682315	-0.77922737	0.87109981	-0.16090183	-0.88931066	0.83290321	0.3080357
72	0.284	-1.2971871	0.097544487	-0.046876738	-0.70131123	0.041185191	0.10350985	-1.3166928	0.25262992	-0.084408577	-0.84927283	0.053415224	0.13505159	-1.2950124	0.2373405	0.010374667	-0.83780479	0.094132874	0.045750081	-1.3809388	0.29745253	-0.037294431	-0.91469901	0.030961419	0.08207912	-0.94877234	0.43152556	-0.1024719	-0.78128819	0.50539921	0.1962943	-0.93699471	0.41907322	0.024920377	-0.79365699	0.49248052	0.071091528	-0.97568366	0.83878659	-0.1266188	-0.95010517	0.87954019	0.24456759	-0.88970304	0.92986559	-0.076998697	-0.8732083	0.9605756	0.16033003	-1.0505196	1.0004965	0.045959212	-0.87678126	1.3986741	-0.10890865	-0.90091122	1.3994924	0.22048081	-0.95821327	1.4523902	0.057522716	-0.98636521	1.0395832	-0.17705612	-1.0440387	1.0596301	0.29753796	-0.77671135	0.87029651	-0.16112552	-0.88080856	0.83568395	0.30777747
73	0.288	-1.2809397	0.097502866	-0.046487429	-0.70133438	0.041165733	0.10357109	-1.3023526	0.25204604	-0.084265028	-0.8492417	0.053406816	0.13509189	-1.2809747	0.23715231	0.010733265	-0.83777143	0.094202334	0.045869976	-1.3675711	0.29626108	-0.037400548	-0.91469494	0.031097172	0.082052861	-0.9362227	0.43339759	-0.10117946	-0.77928281	0.50522246	0.19666889	-0.92414743	0.42093929	0.026263901	-0.79167112	0.492363	0.071281095	-0.9691758	0.84051737	-0.12608179	-0.94439591	0.88122141	0.24477733	-0.88395387	0.93177648	-0.076753042	-0.86741866	0.96207487	0.16039254	-1.0446982	1.0022312	0.046304517	-0.87141786	1.4004375	-0.10884619	-0.89463669	1.4011435	0.22066832	-0.95224754	1.4540362	0.05779817	-0.98129072	1.0416801	-0.1754199	-1.0376642	1.0610589	0.29824845	-0.77426185	0.86959628	-0.16136522	-0.87234025	0.83853614	0.30750102
74	0.292	-1.264392	0.097270281	-0.0459853	-0.70138826	0.041148172	0.10366161	-1.2880556	0.25119384	-0.084014587	-0.84928578	0.053423252	0.13515122	-1.2666132	0.23680598	0.011037097	-0.83776206	0.094282744	0.046010081	-1.3541572	0.29471695	-0.037520945	-0.91469578	0.031244933	0.082048464	-0.92368755	0.43537941	-0.099860972	-0.77763307	0.50503062	0.19716363	-0.91175185	0.42303513	0.027662759	-0.78968593	0.492254	0.071387341	-0.96278148	0.84235018	-0.12556355	-0.93886197	0.88284671	0.24498799	-0.87826133	0.933747	-0.076508199	-0.86160249	0.96356531	0.16047884	-1.0388787	1.0039872	0.046695256	-0.8660607	1.4022365	-0.1087914	-0.88839773	1.4028325	0.22084547	-0.94629169	1.4556948	0.058067508	-0.97636001	1.043748	-0.17419363	-1.031344	1.0625275	0.29894617	-0.77187993	0.86899476	-0.16163151	-0.8637868	0.84148701	0.30721195
75	0.296	-1.2475254	0.096865674	-0.04537798	-0.70147879	0.041138542	0.10378231	-1.2738108	0.25008432	-0.083631091	-0.84943247	0.053476196	0.13523629	-1.2520876	0.23625646	0.011347365	-0.83777781	0.094369595	0.046165806	-1.3407557	0.29281146	-0.037637186	-0.91470925	0.031383433	0.082058222	-0.91110191	0.43747837	-0.098500513	-0.77608888	0.5048714	0.19761701	-0.90003102	0.42545138	0.029239192	-0.78777678	0.49216632	0.071444012	-0.95654362	0.844246	-0.12513808	-0.93371178	0.88440105	0.24520794	-0.87263712	0.93576678	-0.076260453	-0.85582268	0.96504044	0.16058927	-1.0330741	1.0057428	0.047104647	-0.86070852	1.4040589	-0.10874193	-0.88216947	1.4045527	0.22100307	-0.94035487	1.4573731	0.058315423	-0.97160071	1.0458077	-0.173347	-1.025052	1.0640239	0.29962491	-0.7695607	0.86848369	-0.16193391	-0.85517128	0.84452618	0.30691359
76	0.3	-1.230299	0.096313736	-0.044731234	-0.70159655	0.041137881	0.10392264	-1.2594819	0.24874117	-0.083183566	-0.84965091	0.053552853	0.13534527	-1.2376835	0.23544556	0.011774565	-0.83781396	0.094460467	0.04632886	-1.3272893	0.29053568	-0.037812188	-0.91474115	0.031498899	0.082075824	-0.89852553	0.43973261	-0.097119778	-0.77452543	0.5047478	0.19796557	-0.8891294	0.42823997	0.031061528	-0.78601129	0.49209886	0.071510079	-0.95037293	0.84616292	-0.12484104	-0.92902021	0.88587504	0.24543847	-0.8670629	0.93781933	-0.076002635	-0.85008953	0.96649496	0.16071872	-1.0272935	1.0075096	0.047484093	-0.85536729	1.4058833	-0.10869609	-0.87594454	1.4062988	0.22114074	-0.93444181	1.459074	0.058530608	-0.96700393	1.0478817	-0.17278823	-1.0187796	1.0655453	0.30029377	-0.76728602	0.86805651	-0.16227131	-0.84660429	0.84761884	0.30661055
